<svg xmlns="http://www.w3.org/2000/svg" xmlns:xlink="http://www.w3.org/1999/xlink" width="229" height="49" viewBox="0 0 229 49">
    <defs>
        <path id="a" d="M.296 16.476V6.153L8.28.133v10.323l-7.984 6.02"/>
        <linearGradient id="b" x1="-261.736%" x2="247.148%" y1="-20.35%" y2="94.491%">
            <stop offset="0%" stop-color="#97B7D6"/>
            <stop offset="100%" stop-color="#7F8CB8"/>
        </linearGradient>
        <path id="d" d="M.303 16.606V6.283L8.287.263v10.323l-7.984 6.02"/>
        <linearGradient id="e" x1="-57.062%" x2="451.822%" y1="25.839%" y2="140.68%">
            <stop offset="0%" stop-color="#97B7D6"/>
            <stop offset="100%" stop-color="#7F8CB8"/>
        </linearGradient>
        <path id="g" d="M8.583 3.976v37.165L.346 37.297V.132H.35l8.233 3.844"/>
        <linearGradient id="h" x1="-390.269%" x2="103.019%" y1="9.147%" y2="54.917%">
            <stop offset="0%" stop-color="#77A6CD"/>
            <stop offset="98.232%" stop-color="#3B4EAE"/>
        </linearGradient>
        <path id="j" d="M8.59 4.106v37.407L.353 37.665V.262L8.59 4.106"/>
        <linearGradient id="k" x1="-95.14%" x2="94.298%" y1="40.508%" y2="54.108%">
            <stop offset="0%" stop-color="#77A6CD"/>
            <stop offset="100%" stop-color="#3B4EAE"/>
        </linearGradient>
        <path id="m" d="M8.237.147v27.657L0 23.956V6.359L8.237.147"/>
        <linearGradient id="n" x1="0%" x2="94.298%" y1="42.639%" y2="54.108%">
            <stop offset="0%" stop-color="#77A6CD"/>
            <stop offset="100%" stop-color="#3B4EAE"/>
        </linearGradient>
    </defs>
    <g fill="none" fill-rule="evenodd">
        <path fill="#272726" d="M77.82 20.63l-7.154 9.548h-.816l-6.997-9.579v15.985h-4.142V14.6h4.77l6.871 9.453 6.872-9.453h4.738v21.984H77.82V20.63M86.823 36.553h4.11V14.57h-4.11zM100.299 18.432v7.035h6.307c2.635 0 3.765-1.759 3.765-3.518s-1.161-3.517-3.765-3.517h-6.307zm15.311 18.12h-4.925l-6.401-7.348h-3.985v7.349h-4.142V14.538c3.483 0 6.965.031 10.449.031 5.177.031 7.906 3.486 7.906 7.286 0 3.015-1.38 6.061-5.553 6.91l6.651 7.505v.283zM130.26 19.186l-4.078 9.359h8.157l-4.079-9.36zm5.742 13.222H124.52l-1.883 4.145h-4.487L128 14.569h4.519l9.852 21.984h-4.518l-1.852-4.145zM158.403 19.876c-.752-1.256-2.823-2.45-5.208-2.45-3.075 0-4.55 1.288-4.55 2.921 0 1.916 2.26 2.45 4.895 2.764 4.581.566 8.848 1.759 8.848 7.004 0 4.9-4.33 7.003-9.225 7.003-4.486 0-7.938-1.382-9.57-5.402l3.452-1.79c.973 2.419 3.514 3.487 6.182 3.487 2.604 0 5.051-.911 5.051-3.298 0-2.073-2.165-2.92-5.083-3.235-4.487-.534-8.629-1.727-8.629-6.658 0-4.523 4.456-6.375 8.503-6.407 3.42 0 6.966.974 8.63 4.366l-3.296 1.695M169.275 25.781c.094 3.611 2.039 7.474 7.216 7.474s7.123-3.894 7.186-7.506c.062-3.705-2.009-7.851-7.186-7.851s-7.31 4.177-7.216 7.883zm18.48-.095c-.062 5.685-3.545 11.37-11.264 11.37-7.719 0-11.295-5.56-11.295-11.338s3.702-11.589 11.295-11.589c7.562 0 11.327 5.81 11.264 11.557zM192.099 36.553V14.6h15.783v3.989H196.24v5.998h11.014v3.832H196.24v8.134H192.1M217.607 18.338h-6.966v-3.769h18.073v3.769h-6.965v18.215h-4.142V18.338"/>
        <g transform="translate(24.162 7.941)">
            <mask id="c" fill="#fff">
                <use xlink:href="#a"/>
            </mask>
            <path fill="url(#b)" d="M.296 16.476V6.153L8.28.133v10.323l-7.984 6.02" mask="url(#c)"/>
        </g>
        <g transform="translate(7.934)">
            <mask id="f" fill="#fff">
                <use xlink:href="#d"/>
            </mask>
            <path fill="url(#e)" d="M.303 16.606V6.283L8.287.263v10.323l-7.984 6.02" mask="url(#f)"/>
        </g>
        <g transform="translate(32.096 7.941)">
            <mask id="i" fill="#fff">
                <use xlink:href="#g"/>
            </mask>
            <path fill="url(#h)" d="M8.583 3.976v37.165L.346 37.297V.132H.35l8.233 3.844" mask="url(#i)"/>
        </g>
        <g transform="translate(15.868)">
            <mask id="l" fill="#fff">
                <use xlink:href="#j"/>
            </mask>
            <path fill="url(#k)" d="M8.59 4.106v37.407L.353 37.665V.262L8.59 4.106" mask="url(#l)"/>
        </g>
        <g transform="translate(0 6.136)">
            <mask id="o" fill="#fff">
                <use xlink:href="#m"/>
            </mask>
            <path fill="url(#n)" d="M8.237.147v27.657L0 23.956V6.359L8.237.147" mask="url(#o)"/>
        </g>
    </g>
</svg>
