<?xml version="1.0" encoding="UTF-8"?>
<svg width="80px" height="77px" viewBox="0 0 80 77" version="1.1" xmlns="http://www.w3.org/2000/svg" xmlns:xlink="http://www.w3.org/1999/xlink">
    <!-- Generator: sketchtool 52.1 (67048) - http://www.bohemiancoding.com/sketch -->
    <title>22056612-D3F7-458A-A478-6AA814EA09FF</title>
    <desc>Created with sketchtool.</desc>
    <g id="Page-1" stroke="none" stroke-width="1" fill="none" fill-rule="evenodd">
        <g id="1.-Homepage" transform="translate(-1093.000000, -4016.000000)">
            <g id="screen-3" transform="translate(0.000000, 3767.000000)">
                <g id="noun_business-statistics_1326890" transform="translate(1093.000000, 249.000000)">
                    <g id="ic-all">
                        <rect id="Rectangle" fill="#8A96D6" x="2" y="4" width="61" height="48" rx="4"></rect>
                        <path d="M74.238806,58.58 L73.0238806,58.58 L73.0238806,11.61 C73.0238806,9.08 70.9253731,6.99 68.2746269,6.99 L10.6208955,6.99 C8.08059701,6.99 5.87164179,9.08 5.87164179,11.61 L5.87164179,58.58 L4.65671642,58.58 C3.77313433,58.58 3,59.35 3,60.23 C3,66.17 7.85970149,71.01 13.8238806,71.01 L65.1820896,71.01 C71.1462687,71.01 76.0059701,66.17 76.0059701,60.23 C75.8955224,59.35 75.1223881,58.58 74.238806,58.58 Z M8.19104478,11.61 C8.19104478,10.29 9.29552239,9.19 10.7313433,9.19 L68.3850746,9.19 C69.7104478,9.19 70.9253731,10.29 70.9253731,11.61 L70.9253731,58.58 L8.19104478,58.58 L8.19104478,11.61 Z M65.0716418,68.81 L13.8238806,68.81 C9.29552239,68.81 5.54029851,65.29 5.20895522,60.78 L73.6865672,60.78 C73.3552239,65.29 69.7104478,68.81 65.0716418,68.81 Z" id="Shape" fill="#010101" fill-rule="nonzero"></path>
                        <path d="M32.7104478,65.95 L46.1850746,65.95 C46.8477612,65.95 47.2895522,65.51 47.2895522,64.85 C47.2895522,64.19 46.8477612,63.75 46.1850746,63.75 L32.7104478,63.75 C32.0477612,63.75 31.6059701,64.19 31.6059701,64.85 C31.6059701,65.4 32.158209,65.95 32.7104478,65.95 Z" id="Path" fill="#010101"></path>
                        <path d="M66.0656716,11.61 L12.8298507,11.61 C12.1671642,11.61 11.7253731,12.05 11.7253731,12.71 L11.7253731,55.06 C11.7253731,55.72 12.1671642,56.16 12.8298507,56.16 L66.0656716,56.16 C66.7283582,56.16 67.1701493,55.72 67.1701493,55.06 L67.1701493,12.71 C67.1701493,12.05 66.6179104,11.61 66.0656716,11.61 Z M64.961194,53.96 L13.9343284,53.96 L13.9343284,13.81 L64.961194,13.81 L64.961194,53.96 Z" id="Shape" fill="#010101" fill-rule="nonzero"></path>
                        <path d="M52.038806,52.09 C57.8925373,52.09 62.5313433,47.36 62.5313433,41.64 C62.5313433,36.47 58.6656716,32.07 53.6955224,31.3 C53.6955224,31.3 53.6955224,31.3 53.6955224,31.3 C53.6955224,31.3 53.6955224,31.3 53.6955224,31.3 C52.5910448,31.08 51.7074627,31.08 50.4925373,31.3 L50.4925373,21.95 C50.4925373,21.29 50.0507463,20.85 49.3880597,20.85 L45.5223881,20.85 C44.8597015,20.85 44.4179104,21.29 44.4179104,21.95 L44.4179104,34.6 C42.761194,36.47 41.6567164,38.89 41.6567164,41.64 C41.5462687,47.36 46.1850746,52.09 52.038806,52.09 Z M43.7552239,42.74 L51.4865672,42.74 L56.5671642,48.57 C51.3761194,51.87 44.638806,48.68 43.7552239,42.74 Z M58.2238806,47.03 L53.1432836,41.2 L54.2477612,33.61 C60.1014925,35.37 62.2,42.52 58.2238806,47.03 Z M52.1492537,33.39 L51.0447761,40.54 L43.7552239,40.54 C44.3074627,36.47 47.7313433,33.39 51.9283582,33.39 C52.038806,33.39 52.038806,33.39 52.1492537,33.39 Z M48.0626866,23.05 L48.0626866,31.85 C47.5104478,32.07 46.958209,32.4 46.4059701,32.73 L46.4059701,23.05 L48.0626866,23.05 Z" id="Shape" fill="#010101" fill-rule="nonzero"></path>
                        <path d="M17.4686567,45.82 L21.3343284,45.82 C21.9970149,45.82 22.438806,45.38 22.438806,44.72 L22.438806,36.25 C22.438806,35.59 21.9970149,35.15 21.3343284,35.15 L17.4686567,35.15 C16.8059701,35.15 16.3641791,35.59 16.3641791,36.25 L16.3641791,44.72 C16.3641791,45.27 16.8059701,45.82 17.4686567,45.82 Z M18.5731343,37.35 L20.2298507,37.35 L20.2298507,43.62 L18.5731343,43.62 L18.5731343,37.35 Z" id="Shape" fill="#010101" fill-rule="nonzero"></path>
                        <path d="M26.7462687,45.82 L30.6119403,45.82 C31.2746269,45.82 31.7164179,45.38 31.7164179,44.72 L31.7164179,31.52 C31.7164179,30.86 31.2746269,30.42 30.6119403,30.42 L26.7462687,30.42 C26.0835821,30.42 25.641791,30.86 25.641791,31.52 L25.641791,44.72 C25.641791,45.27 26.1940299,45.82 26.7462687,45.82 Z M27.8507463,32.62 L29.5074627,32.62 L29.5074627,43.62 L27.8507463,43.62 L27.8507463,32.62 Z" id="Shape" fill="#010101" fill-rule="nonzero"></path>
                        <path d="M36.0238806,45.82 L39.8895522,45.82 C40.5522388,45.82 40.9940299,45.38 40.9940299,44.72 L40.9940299,26.68 C40.9940299,26.02 40.5522388,25.58 39.8895522,25.58 L36.0238806,25.58 C35.361194,25.58 34.919403,26.02 34.919403,26.68 L34.919403,44.72 C34.919403,45.27 35.4716418,45.82 36.0238806,45.82 Z M37.1283582,27.78 L38.7850746,27.78 L38.7850746,43.62 L37.1283582,43.62 L37.1283582,27.78 Z" id="Shape" fill="#010101" fill-rule="nonzero"></path>
                        <path d="M17.4686567,49.67 L40.8835821,49.67 C41.5462687,49.67 41.9880597,49.23 41.9880597,48.57 C41.9880597,47.91 41.5462687,47.47 40.8835821,47.47 L17.4686567,47.47 C16.8059701,47.47 16.3641791,47.91 16.3641791,48.57 C16.3641791,49.12 16.8059701,49.67 17.4686567,49.67 Z" id="Path" fill="#010101"></path>
                    </g>
                </g>
            </g>
        </g>
    </g>
</svg>