<?xml version="1.0" encoding="UTF-8"?>
<svg width="80px" height="77px" viewBox="0 0 80 77" version="1.1" xmlns="http://www.w3.org/2000/svg" xmlns:xlink="http://www.w3.org/1999/xlink">
    <!-- Generator: sketchtool 52.1 (67048) - http://www.bohemiancoding.com/sketch -->
    <title>5CAB9307-E86D-4DA0-99CF-4502C04E70A0</title>
    <desc>Created with sketchtool.</desc>
    <g id="Page-1" stroke="none" stroke-width="1" fill="none" fill-rule="evenodd">
        <g id="1.-Homepage" transform="translate(-681.000000, -4016.000000)">
            <g id="screen-3" transform="translate(0.000000, 3767.000000)">
                <g id="storage" transform="translate(577.000000, 249.000000)">
                    <g id="noun_Cloud-Security_1326875" transform="translate(106.000000, 1.000000)">
                        <g id="Group">
                            <path d="M22.1587149,47.5322581 C12.3835031,47.0752688 10.1917515,49.3602151 8.35068025,42.0483871 C7.12329939,37.1738351 9.11779328,33.9718143 14.3341619,32.4423245 C14.0273167,21.4807748 17.8628819,16 25.8408575,16 C29.9443476,16 34.1256783,17.827957 36.4270174,22.3978495 C38.7283565,26.9677419 35.9667496,13.677598 50.6953199,19.4086915 C53.1461312,20.3623366 56.0212563,22.7859382 57.1390694,26.4397321 C57.4680865,27.5151899 57.4680865,29.3515875 57.1390694,31.9489247 C60.821212,31.6747312 63.2759737,32.8358476 64.5033545,35.4322741 C67.6160663,42.016968 65.7944639,47.3368504 57.1390694,47.5322581 C36.8971689,47.9892473 31.9339267,47.9892473 22.1587149,47.5322581 Z" id="Path-2" fill="#8A96D6"></path>
                            <path d="M12.4475824,24.6075269 C3.85374069,24.2508961 1.92687035,26.0340502 0.308299256,20.327957 C-0.770748139,16.5238949 0.982703877,14.0250629 5.5686553,12.8314611 C5.29889345,4.27715369 8.67091656,1.38182974e-15 15.6847246,0 C19.2922929,0 22.9682945,1.4265233 24.9915084,4.99283154 C27.0147223,8.55913978 24.5868656,-1.81238431 37.5354344,2.66011609 C39.6900562,3.40433324 42.2177119,5.29569297 43.2004332,8.14708502 C43.4896874,8.98636388 43.4896874,10.4194741 43.2004332,12.4464158 C46.4375754,12.2324373 48.5956701,13.1385635 49.6747175,15.1647943 C52.4112467,20.3034377 50.8097916,24.4550323 43.2004332,24.6075269 C25.4048404,24.9641577 21.0414242,24.9641577 12.4475824,24.6075269 Z" id="Path-2" fill="#8A96D6"></path>
                            <path d="M65.280597,32.8545455 C65.280597,32.6333333 65.280597,32.3015152 65.280597,31.969697 C65.280597,24.2272727 58.9850746,17.8121212 51.1432836,17.8121212 C50.7014925,17.8121212 50.2597015,17.8121212 49.9283582,17.9227273 C48.7134328,15.9318182 46.7253731,14.4939394 44.4059701,14.2727273 C44.4059701,14.1621212 44.4059701,13.9409091 44.4059701,13.830303 C44.4059701,7.7469697 39.4358209,2.76969697 33.361194,2.76969697 C30.6,2.76969697 27.9492537,3.76515152 25.8507463,5.64545455 C23.7522388,2.76969697 20.438806,1 16.9044776,1 C10.719403,1 5.74925373,5.97727273 5.74925373,12.0606061 C5.74925373,12.9454545 5.85970149,13.719697 6.08059701,14.6045455 C3.09850746,15.7106061 1,18.4757576 1,21.7939394 C1,25.9969697 4.4238806,29.4257576 8.62089552,29.4257576 L15.6895522,29.4257576 C15.6895522,30.6424242 15.6895522,31.8590909 16.1313433,33.2969697 C12.2656716,34.5136364 9.50447761,38.1636364 9.50447761,42.3666667 C9.50447761,47.6757576 13.8119403,51.8787879 19.1134328,51.8787879 L26.4029851,51.8787879 L26.4029851,69.6863636 C26.4029851,72.0090909 28.280597,74 30.7104478,74 L55.119403,74 C57.438806,74 59.4268657,72.119697 59.4268657,69.6863636 L59.4268657,51.8787879 L64.5074627,51.8787879 C69.8089552,51.8787879 74.1164179,47.5651515 74.1164179,42.3666667 C73.8955224,37.3893939 70.1402985,33.2969697 65.280597,32.8545455 Z M3.20895522,21.7939394 C3.20895522,19.25 5.08656716,16.9272727 7.62686567,16.4848485 C7.95820896,16.3742424 8.17910448,16.2636364 8.4,15.9318182 C8.51044776,15.6 8.62089552,15.2681818 8.51044776,15.0469697 C8.17910448,14.0515152 7.95820896,13.1666667 7.95820896,12.1712121 C7.95820896,7.30454545 11.9343284,3.32272727 16.9044776,3.32272727 C20.2179104,3.32272727 23.2,5.09242424 24.7462687,7.96818182 C24.9671642,8.3 25.1880597,8.52121212 25.6298507,8.52121212 C25.961194,8.52121212 26.4029851,8.41060606 26.6238806,8.07878788 C28.280597,6.08787879 30.8208955,4.87121212 33.4716418,4.87121212 C38.3313433,4.87121212 42.3074627,8.8530303 42.3074627,13.719697 C42.3074627,14.1621212 42.3074627,14.6045455 42.1970149,15.0469697 C42.1970149,15.3787879 42.1970149,15.7106061 42.4179104,15.9318182 C42.638806,16.1530303 42.9701493,16.3742424 43.3014925,16.3742424 L43.5223881,16.3742424 C45.1791045,16.3742424 46.7253731,17.1484848 47.719403,18.3651515 C45.4,19.0287879 43.3014925,20.1348485 41.5343284,21.7939394 C38.8835821,17.9227273 34.5761194,15.7106061 29.9373134,15.7106061 C23.0895522,15.7106061 17.3462687,20.5772727 16.1313433,27.2136364 L8.62089552,27.2136364 C5.63880597,27.1030303 3.20895522,24.669697 3.20895522,21.7939394 Z M56.9970149,69.6863636 C56.9970149,70.7924242 56.1134328,71.7878788 54.8985075,71.7878788 L30.6,71.7878788 C29.4955224,71.7878788 28.5014925,70.9030303 28.5014925,69.6863636 C28.5014925,57.9621212 28.5014925,61.280303 28.5014925,49.5560606 C34.4656716,49.5560606 51.2537313,49.5560606 56.9970149,49.5560606 L56.9970149,69.6863636 Z M51.4746269,47.3439394 L34.1343284,47.3439394 L34.1343284,40.0439394 C34.1343284,35.5090909 37.4477612,31.969697 41.6447761,31.4166667 C47.0567164,30.7530303 51.4746269,34.9560606 51.4746269,40.0439394 L51.4746269,47.3439394 Z M64.2865672,49.6666667 L59.2059701,49.6666667 L59.2059701,48.45 C59.2059701,47.7863636 58.7641791,47.3439394 58.1014925,47.3439394 L53.5731343,47.3439394 L53.5731343,40.0439394 C53.5731343,33.4075758 47.8298507,28.430303 41.2029851,29.2045455 C36.0119403,29.9787879 31.8149254,34.4030303 31.8149254,40.0439394 L31.8149254,47.3439394 L27.2865672,47.3439394 C26.6238806,47.3439394 26.1820896,47.7863636 26.1820896,48.45 L26.1820896,49.6666667 L18.8925373,49.6666667 C14.8059701,49.6666667 11.4925373,46.3484848 11.4925373,42.3666667 C11.4925373,38.8272727 14.0328358,35.8409091 17.4567164,35.1772727 C17.7880597,35.0666667 18.0089552,34.9560606 18.2298507,34.6242424 C18.3402985,34.2924242 18.4507463,33.9606061 18.3402985,33.7393939 C17.7880597,31.969697 17.5671642,30.3106061 17.7880597,28.430303 C18.4507463,22.4575758 23.5313433,17.9227273 29.6059701,17.9227273 C34.0238806,17.9227273 38,20.3560606 40.0985075,24.2272727 C40.319403,24.5590909 40.5402985,24.780303 40.9820896,24.780303 C41.3134328,24.780303 41.7552239,24.669697 41.9761194,24.3378788 C44.2955224,21.5727273 47.719403,20.0242424 51.1432836,20.0242424 C57.6597015,20.0242424 63.0716418,25.3333333 63.0716418,31.969697 C63.0716418,32.6333333 62.961194,33.2969697 62.961194,33.7393939 C62.961194,34.0712121 62.961194,34.4030303 63.1820896,34.6242424 C63.4029851,34.8454545 63.7343284,34.9560606 64.0656716,34.9560606 L64.2865672,34.9560606 C68.3731343,34.9560606 71.6865672,38.2742424 71.6865672,42.2560606 C71.6865672,46.3484848 68.3731343,49.6666667 64.2865672,49.6666667 Z" id="Shape" fill="#010101" fill-rule="nonzero"></path>
                            <path d="M42.7492537,56.4136364 C40.4298507,56.4136364 38.5522388,58.2939394 38.5522388,60.6166667 C38.5522388,62.4969697 39.8776119,64.1560606 41.6447761,64.5984848 L41.6447761,67.4742424 C41.6447761,68.1378788 42.0865672,68.580303 42.7492537,68.580303 C43.4119403,68.580303 43.8537313,68.1378788 43.8537313,67.4742424 L43.8537313,64.5984848 C45.6208955,64.1560606 46.9462687,62.4969697 46.9462687,60.6166667 C46.9462687,58.2939394 45.0686567,56.4136364 42.7492537,56.4136364 Z M42.7492537,62.6075758 C41.6447761,62.6075758 40.761194,61.7227273 40.761194,60.6166667 C40.761194,59.5106061 41.6447761,58.6257576 42.7492537,58.6257576 C43.8537313,58.6257576 44.7373134,59.5106061 44.7373134,60.6166667 C44.7373134,61.7227273 43.8537313,62.6075758 42.7492537,62.6075758 Z" id="Shape" fill="#010101" fill-rule="nonzero"></path>
                        </g>
                    </g>
                </g>
            </g>
        </g>
    </g>
</svg>