<?xml version="1.0" encoding="UTF-8"?>
<svg width="80px" height="77px" viewBox="0 0 80 77" version="1.1" xmlns="http://www.w3.org/2000/svg" xmlns:xlink="http://www.w3.org/1999/xlink">
    <!-- Generator: sketchtool 52.1 (67048) - http://www.bohemiancoding.com/sketch -->
    <title>341FD58B-8418-4E8A-8EC2-DA6615E8D839</title>
    <desc>Created with sketchtool.</desc>
    <g id="Page-1" stroke="none" stroke-width="1" fill="none" fill-rule="evenodd">
        <g id="1.-Homepage" transform="translate(-263.000000, -4016.000000)">
            <g id="screen-3" transform="translate(0.000000, 3767.000000)">
                <g id="support" transform="translate(189.000000, 248.000000)">
                    <g id="noun_Call-Management_1333654" transform="translate(71.000000, 0.000000)">
                        <circle id="Oval" fill="#8A96D6" cx="25" cy="23" r="15"></circle>
                        <path d="M19.8933518,60.5 C25.9241177,60.5 32.5972479,60.5 39.9127424,60.5 C42.3393352,46.9405369 35.8684211,40.1608054 20.5,40.1608054 C5.13157895,40.1608054 -1.33933518,46.9405369 1.08725762,60.5 C7.59388786,60.5 13.8625859,60.5 19.8933518,60.5 Z" id="Oval" fill="#8A96D6"></path>
                        <path d="M7.82089552,27.4626866 L10.5671642,27.4626866 C11.2835821,27.4626866 11.761194,26.9850746 11.761194,26.2686567 L11.761194,19.7014925 C11.761194,18.9850746 11.2835821,18.5074627 10.5671642,18.5074627 L9.6119403,18.5074627 C11.641791,9.19402985 20,2.3880597 29.6716418,2.3880597 C39.3432836,2.3880597 47.7014925,9.19402985 49.7313433,18.5074627 L48.6567164,18.5074627 C47.9402985,18.5074627 47.4626866,18.9850746 47.4626866,19.7014925 L47.4626866,26.2686567 C47.4626866,26.9850746 47.9402985,27.4626866 48.6567164,27.4626866 L49.8507463,27.4626866 C49.0149254,30.2089552 46.2686567,32.9552239 42.8059701,34.1492537 C42.4477612,34.2686567 42.0895522,34.3880597 41.7313433,34.5074627 C44.5970149,31.2835821 46.3880597,26.9850746 46.3880597,22.4477612 C46.3880597,13.3731343 38.8656716,5.97014925 29.6716418,5.97014925 C20.4776119,5.97014925 12.9552239,13.3731343 12.9552239,22.4477612 C12.9552239,31.880597 20.7164179,40.238806 29.6716418,40.238806 C33.0149254,40.238806 36.119403,39.0447761 38.7462687,37.1343284 C38.8656716,37.1343284 38.9850746,37.1343284 38.9850746,37.1343284 C40.5373134,37.1343284 42.0895522,36.8955224 43.641791,36.2985075 C48.0597015,34.6268657 51.5223881,30.9253731 52.358209,27.2238806 C54.0298507,26.7462687 55.3432836,25.3134328 55.3432836,23.5223881 L55.3432836,22.3283582 C55.3432836,20.4179104 54.0298507,18.8656716 52.238806,18.5074627 C50.2089552,7.88059701 40.6567164,0 29.6716418,0 C18.6865672,0 9.25373134,7.88059701 7.10447761,18.6268657 C5.31343284,18.9850746 4,20.5373134 4,22.4477612 L4,23.641791 C4,25.6716418 5.79104478,27.4626866 7.82089552,27.4626866 Z M29.6716418,37.9701493 C22.0298507,37.9701493 15.3432836,30.8059701 15.3432836,22.5671642 C15.3432836,14.8059701 21.7910448,8.47761194 29.6716418,8.47761194 C37.5522388,8.47761194 44,14.8059701 44,22.5671642 C44,27.4626866 41.6119403,32 38.0298507,34.8656716 C36.5970149,34.7462687 35.0447761,34.1492537 33.6119403,32.9552239 L33.7313433,31.641791 C33.8507463,31.0447761 33.3731343,30.4477612 32.6567164,30.3283582 C32.0597015,30.2089552 31.4626866,30.6865672 31.3432836,31.4029851 L30.9850746,35.2238806 C30.8656716,35.8208955 31.3432836,36.4179104 32.0597015,36.5373134 C32.0597015,36.5373134 32.1791045,36.5373134 32.1791045,36.5373134 C32.6567164,36.5373134 33.1343284,36.1791045 33.2537313,35.7014925 C33.8507463,36.0597015 34.5671642,36.4179104 35.2835821,36.6567164 C33.6119403,37.4925373 31.7014925,37.9701493 29.6716418,37.9701493 Z M52.9552239,22.4477612 L52.9552239,23.641791 C52.9552239,24.4776119 52.238806,25.0746269 51.5223881,25.0746269 L49.9701493,25.0746269 L49.9701493,20.8955224 L51.5223881,20.8955224 C52.358209,20.8955224 52.9552239,21.6119403 52.9552239,22.4477612 Z M6.3880597,22.4477612 C6.3880597,21.6119403 7.10447761,21.0149254 7.82089552,21.0149254 L9.37313433,21.0149254 L9.37313433,25.0746269 L7.82089552,25.0746269 C7.10447761,25.0746269 6.3880597,24.358209 6.3880597,23.5223881 L6.3880597,22.4477612 Z" id="Shape" fill="#010101" fill-rule="nonzero"></path>
                        <path d="M41.9701493,62.0895522 L6.3880597,62.0895522 C6.74626866,52.5373134 14.6268657,44.8955224 24.2985075,44.8955224 L35.0447761,44.8955224 C38.6268657,44.8955224 42.0895522,45.9701493 45.0746269,48 C45.6716418,48.358209 46.3880597,48.238806 46.7462687,47.641791 C47.1044776,47.0447761 46.9850746,46.3283582 46.3880597,45.9701493 C43.0447761,43.7014925 39.1044776,42.5074627 35.0447761,42.5074627 L24.2985075,42.5074627 C13.0746269,42.5074627 4,51.5820896 4,62.9253731 L4,63.2835821 C4,64 4.47761194,64.4776119 5.19402985,64.4776119 L41.9701493,64.4776119 C42.6865672,64.4776119 43.1641791,64 43.1641791,63.2835821 C43.1641791,62.5671642 42.5671642,62.0895522 41.9701493,62.0895522 Z" id="Path" fill="#010101"></path>
                        <path d="M81.7313433,56 L78.1492537,55.5223881 C77.7910448,54.0895522 77.1940299,52.6567164 76.4776119,51.3432836 L78.6268657,48.5970149 C78.9850746,48.119403 78.9850746,47.4029851 78.5074627,46.9253731 L75.641791,44.0597015 C75.1641791,43.5820896 74.5671642,43.5820896 74.0895522,43.9402985 L71.2238806,46.0895522 C69.9104478,45.2537313 68.5970149,44.7761194 67.0447761,44.4179104 L66.5671642,40.8358209 C66.4477612,40.238806 65.9701493,39.761194 65.3731343,39.761194 L61.3134328,39.761194 C60.7164179,39.761194 60.238806,40.238806 60.119403,40.8358209 L59.641791,44.4179104 C58.2089552,44.7761194 56.7761194,45.3731343 55.4626866,46.0895522 L52.5970149,43.9402985 C52.119403,43.5820896 51.4029851,43.5820896 51.0447761,44.0597015 L48.1791045,47.0447761 C47.7014925,47.5223881 47.7014925,48.119403 48.0597015,48.5970149 L50.2089552,51.4626866 C49.3731343,52.7761194 48.8955224,54.2089552 48.5373134,55.641791 L44.9552239,56.119403 C44.358209,56.238806 43.880597,56.7164179 43.880597,57.3134328 L43.880597,61.4925373 C43.880597,62.0895522 44.358209,62.5671642 44.9552239,62.6865672 L48.5373134,63.1641791 C48.8955224,64.5970149 49.4925373,66.0298507 50.2089552,67.3432836 L48.1791045,70.0895522 C47.8208955,70.5671642 47.8208955,71.2835821 48.2985075,71.641791 L51.1641791,74.6268657 C51.641791,75.1044776 52.238806,75.1044776 52.7164179,74.7462687 L55.5820896,72.5970149 C56.8955224,73.4328358 58.2089552,73.9104478 59.761194,74.2686567 L60.238806,77.8507463 C60.358209,78.4477612 60.8358209,78.9253731 61.4328358,78.9253731 L65.4925373,78.9253731 C66.0895522,78.9253731 66.5671642,78.4477612 66.6865672,77.8507463 L67.1641791,74.2686567 C68.5970149,73.9104478 70.0298507,73.3134328 71.3432836,72.5970149 L74.0895522,74.7462687 C74.3283582,74.8656716 74.5671642,74.9850746 74.9253731,74.9850746 C75.2835821,74.9850746 75.641791,74.8656716 75.880597,74.6268657 L78.7462687,71.761194 C79.2238806,71.2835821 79.2238806,70.6865672 78.8656716,70.2089552 L76.7164179,67.3432836 C77.5522388,66.0298507 78.0298507,64.5970149 78.3880597,63.1641791 L81.9701493,62.6865672 C82.5671642,62.5671642 83.0447761,62.0895522 83.0447761,61.4925373 L83.0447761,57.3134328 C82.8059701,56.5970149 82.3283582,56.119403 81.7313433,56 Z M80.4179104,60.2985075 L77.0746269,60.7761194 C76.5970149,60.8955224 76.119403,61.2537313 76.119403,61.7313433 C75.761194,63.5223881 75.1641791,65.1940299 74.0895522,66.6268657 C73.8507463,67.1044776 73.8507463,67.5820896 74.0895522,68.0597015 L76.119403,70.8059701 L74.6865672,72.238806 L72.0597015,70.0895522 C71.7014925,69.7313433 71.1044776,69.7313433 70.6268657,70.0895522 C69.1940299,71.0447761 67.5223881,71.761194 65.8507463,72.119403 C65.3731343,72.238806 65.0149254,72.5970149 64.8955224,73.1940299 L64.4179104,76.4179104 L62.3880597,76.4179104 L61.9104478,73.0746269 C61.7910448,72.5970149 61.4328358,72.119403 60.9552239,72 C59.1641791,71.641791 57.6119403,71.0447761 56.1791045,69.9701493 C55.7014925,69.7313433 55.2238806,69.7313433 54.7462687,69.9701493 L52.119403,72 L50.6865672,70.5671642 L52.7164179,67.9402985 C53.0746269,67.5820896 53.0746269,66.8656716 52.7164179,66.5074627 C51.761194,65.0746269 51.0447761,63.4029851 50.6865672,61.6119403 C50.5671642,61.1343284 50.2089552,60.7761194 49.7313433,60.6567164 L46.3880597,60.1791045 L46.3880597,58.1492537 L49.7313433,57.6716418 C50.2089552,57.5522388 50.6865672,57.1940299 50.6865672,56.7164179 C51.0447761,54.9253731 51.641791,53.2537313 52.7164179,51.8208955 C52.9552239,51.3432836 52.9552239,50.8656716 52.7164179,50.3880597 L50.6865672,47.641791 L52.119403,46.2089552 L54.7462687,48.238806 C55.1044776,48.5970149 55.8208955,48.5970149 56.1791045,48.238806 C57.6119403,47.2835821 59.2835821,46.5671642 60.9552239,46.2089552 C61.4328358,46.0895522 61.7910448,45.7313433 61.9104478,45.1343284 L62.3880597,41.7910448 L64.4179104,41.7910448 L64.8955224,45.1343284 C65.0149254,45.6119403 65.3731343,46.0895522 65.8507463,46.2089552 C67.641791,46.5671642 69.1940299,47.1641791 70.6268657,48.238806 C71.1044776,48.4776119 71.5820896,48.4776119 72.0597015,48.238806 L74.6865672,46.2089552 L76.119403,47.641791 L74.0895522,50.3880597 C73.7313433,50.7462687 73.7313433,51.3432836 74.0895522,51.8208955 C75.0447761,53.2537313 75.761194,54.9253731 76.119403,56.7164179 C76.238806,57.1940299 76.5970149,57.5522388 77.0746269,57.6716418 L80.4179104,58.1492537 L80.4179104,60.2985075 Z" id="Shape" fill="#010101" fill-rule="nonzero"></path>
                        <path d="M63.4626866,50.5074627 C58.6865672,50.5074627 54.7462687,54.4477612 54.7462687,59.2238806 C54.7462687,64.119403 58.6865672,68.0597015 63.4626866,68.0597015 C68.238806,68.0597015 72.1791045,64.119403 72.1791045,59.2238806 C72.1791045,54.4477612 68.238806,50.5074627 63.4626866,50.5074627 Z M63.4626866,65.6716418 C60,65.6716418 57.1343284,62.8059701 57.1343284,59.2238806 C57.1343284,55.761194 60,52.8955224 63.4626866,52.8955224 C66.9253731,52.8955224 69.7910448,55.761194 69.7910448,59.2238806 C69.7910448,62.8059701 66.9253731,65.6716418 63.4626866,65.6716418 Z" id="Shape" fill="#010101" fill-rule="nonzero"></path>
                    </g>
                </g>
            </g>
        </g>
    </g>
</svg>