<svg xmlns="http://www.w3.org/2000/svg" width="80" height="80" viewBox="0 0 80 80">
    <g fill="none" fill-rule="evenodd">
        <path fill="#010101" fill-rule="nonzero" d="M24.06 50.273h-6.824c-.718 0-1.197.479-1.197 1.197v15.92c0 .718.48 1.196 1.197 1.196h6.823c.718 0 1.197-.478 1.197-1.197V51.47c0-.598-.479-1.196-1.197-1.196zm-1.198 16.04h-4.429V52.666h4.43v13.645zM31.6 45.485c-.718 0-1.197.479-1.197 1.197v20.707c0 .719.479 1.197 1.197 1.197h6.823c.718 0 1.197-.478 1.197-1.197V46.682c0-.718-.48-1.197-1.197-1.197H31.6zm5.626 20.827h-4.429V47.88h4.429v18.433zM44.647 38.303v29.086c0 .719.479 1.197 1.197 1.197h6.823c.718 0 1.197-.478 1.197-1.197V38.303c0-.718-.48-1.197-1.197-1.197h-6.823c-.599 0-1.197.599-1.197 1.197zm2.394 1.197h4.429v26.692h-4.43V39.5z"/>
        <path fill="#8A96D6" d="M18.463 29.928l13.426-10.49 7.865-1.824a5 5 0 0 1 5.814 6.62l-3.212 8.6-13.427 10.49-10.466-13.396z"/>
        <path fill="#010101" fill-rule="nonzero" d="M60.208 27.53c-.719 0-1.197.48-1.197 1.197V67.39c0 .719.478 1.197 1.197 1.197h6.822c.718 0 1.197-.478 1.197-1.197V28.727c0-.718-.479-1.197-1.197-1.197h-6.822zm5.506 38.782h-4.43V29.924h4.43v36.388zM58.053 17.476l-2.035 2.513c2.035 1.796 4.429 2.873 6.943 3.113v2.034h1.795v-2.034c1.915-.12 3.471-.719 4.668-1.676 1.197-1.078 1.796-2.394 1.796-4.07 0-1.676-.48-2.873-1.556-3.83-1.078-.838-2.634-1.556-4.788-2.035h-.12V6.105c1.436.239 2.753.718 4.07 1.675l1.795-2.633c-1.795-1.317-3.83-2.035-5.865-2.155V1.556h-1.795v1.436c-1.796.12-3.352.719-4.43 1.676-1.196 1.077-1.675 2.394-1.675 4.07 0 1.676.479 2.873 1.436 3.71.958.838 2.514 1.557 4.669 2.035v5.506c-1.676-.359-3.352-1.197-4.908-2.513zm6.703-2.514c1.077.36 1.915.718 2.274 1.077.36.36.599.958.599 1.556 0 .599-.24 1.197-.838 1.676-.479.479-1.197.718-2.155.838v-5.147h.12zm-3.95-5.147c-.359-.359-.598-.838-.598-1.556 0-.598.239-1.197.718-1.556.479-.479 1.197-.718 2.035-.718v4.907c-1.078-.239-1.796-.598-2.155-1.077z"/>
        <path fill="#010101" d="M79 71.938c0-.36-.12-.599-.36-.838l-5.625-5.626a1.157 1.157 0 0 0-1.676 0 1.157 1.157 0 0 0 0 1.676l3.591 3.59H8.38V4.07l3.71 3.71a1.157 1.157 0 0 0 1.676 0 1.157 1.157 0 0 0 0-1.675L8.02.359C7.78.12 7.54 0 7.182 0c-.36 0-.718.12-.838.36L.359 6.104a1.157 1.157 0 0 0 0 1.675 1.157 1.157 0 0 0 1.676 0l3.95-3.71v67.868c0 .718.479 1.197 1.197 1.197H74.93l-3.83 3.83a1.157 1.157 0 0 0 0 1.676 1.157 1.157 0 0 0 1.676 0l5.865-5.865c.24-.24.359-.599.359-.838z"/>
        <path fill="#010101" fill-rule="nonzero" d="M12.688 24.897c-.12.479.12.958.359 1.317l11.73 15.32c.36.48.838.719 1.437.719.359 0 .838-.12 1.077-.36l17.356-13.285c.24-.12.36-.48.479-.719l2.633-13.406a3.18 3.18 0 0 0-.479-2.274c-.478-.598-1.197-1.077-2.035-1.077L31.6 10.174c-.24 0-.598.12-.838.24L13.406 23.7c-.359.24-.598.718-.718 1.197zm19.151-12.329l13.287.958c.12 0 .24.12.24.12s.119.12.119.359L42.97 27.052 26.333 39.62 15.321 25.256 31.84 12.568z"/>
        <path fill="#010101" fill-rule="nonzero" d="M38.423 23.34c.957 0 1.915-.358 2.633-.957 1.915-1.436 2.274-4.19.838-6.104-.838-1.077-2.155-1.676-3.471-1.676-.958 0-1.915.36-2.634.958-.957.718-1.556 1.795-1.675 2.872-.12 1.197.12 2.275.838 3.232.837 1.077 2.034 1.676 3.47 1.676zm-2.035-4.548c.12-.478.359-.957.718-1.316.36-.24.718-.36 1.197-.36.599 0 1.197.24 1.556.839.718.837.479 2.154-.359 2.753-.838.598-2.155.478-2.753-.36-.24-.598-.36-1.077-.36-1.556z"/>
        <path fill="#010101" d="M32.079 31.002c.359.478 1.197.598 1.676.239.478-.36.598-1.197.239-1.676l-6.942-9.217c-.36-.478-1.197-.598-1.676-.239-.479.36-.599 1.197-.24 1.676l6.943 9.217zM29.086 34.832c.48-.36.599-1.197.24-1.676l-7.062-9.217c-.36-.478-1.197-.598-1.676-.239-.479.36-.599 1.197-.24 1.676l7.063 9.216c.359.599 1.197.599 1.675.24z"/>
    </g>
</svg>
