<svg xmlns="http://www.w3.org/2000/svg" width="80" height="80" viewBox="0 0 80 80">
    <g fill="none" fill-rule="evenodd">
        <path fill="#010101" fill-rule="nonzero" d="M40.5 58.257l20.573-10.919c.332-.22.553-.551.553-.992V26.934c0-.441-.332-.883-.664-.993L40.5 14.801c-.332-.22-.774-.22-.995 0l-7.08 3.75c-8.405 4.412-2.764 1.545-13.272 7.06-.221.11-.332.33-.442.44-.111.11-.111.331-.111.442V44.36c0 .331.221.772.553.883l20.24 13.014c.222.11.333.11.554.22.221-.11.442-.11.553-.22zm.553-2.757V38.735l6.305-3.419v4.963c0 .442.22.772.553.993.22.11.331.11.553.11.22 0 .331 0 .553-.11l4.977-2.757c.332-.22.553-.552.553-.993v-6.066l4.867-2.647v16.985L41.053 55.5zm-8.185-34.743l19.467 10.589v5.514l-2.765 1.544v-4.963-.11-.11c0-.11 0-.221-.11-.331-.112-.11-.222-.11-.333-.22l-.11-.111-.11-.11L29.991 22.19l2.876-1.434zm7.079-3.75l18.25 9.927-4.756 2.537-18.25-9.927 4.756-2.537zM27.78 23.515l18.36 9.926-6.193 3.309-18.14-10.257 5.973-2.978zm-7.078 20.404V28.478L38.84 38.735V55.28L20.7 43.92z"/>
        <path fill="#8A96D6" d="M21 29l17 11v13.273L21.5 42.62zM27.5 24.082l16 8.842-4 3.076-15-9.509zM41 17l16 8.843-4 3.075-15-9.508z"/>
        <path fill="#010101" fill-rule="nonzero" d="M73.35 34.434c-1.99 0-3.65 1.654-3.65 3.64v11.029l-1.548 1.654a4.625 4.625 0 0 0-.996-1.544h-.11c-.775-.662-1.66-.992-2.766-.992-.995.11-1.88.551-2.544 1.323l-6.304 7.941c-.553.772-.774 1.655-.774 2.537v6.838h-1.106c-.664 0-1.328.552-1.328 1.324v7.39c0 .661.553 1.323 1.328 1.323h16.812c.663 0 1.327-.551 1.327-1.323v-7.39c0-.662-.553-1.324-1.327-1.324h-1.549v-1.764c0-.552.11-1.103.443-1.545l7.189-9.816c.332-.44.442-1.103.442-1.654V38.074c.111-1.986-1.548-3.64-3.539-3.64zM69.479 74.69H54.547v-5.515h14.932v5.515zm5.309-22.5c0 .11 0 .331-.11.441l-7.19 9.817c-.553.882-.774 1.764-.774 2.867v1.765H56.98v-6.838c0-.442.11-.883.332-1.214l6.194-7.83c.221-.331.553-.442.996-.552.331 0 .774.11.995.33l.11.111c.775.662.775 1.875.111 2.647l-1.106 1.324a1.179 1.179 0 0 0 .11 1.544c.443.441 1.107.33 1.55-.11l5.198-5.956a1.19 1.19 0 0 0 .332-.772V38.074c0-.773.663-1.434 1.437-1.434.775 0 1.438.661 1.438 1.434V52.19h.11zM27.338 66.97h-1.106v-6.838c0-.882-.332-1.764-.885-2.647l-6.194-7.83c-.664-.773-1.548-1.324-2.544-1.324-.995-.11-1.99.33-2.765.993a4.625 4.625 0 0 0-.996 1.544l-1.437-1.655v-11.03c0-1.984-1.66-3.639-3.65-3.639A3.545 3.545 0 0 0 4 38.074V52.19c0 .552.221 1.103.553 1.655l7.079 9.705c.332.442.442.993.442 1.655v1.765h-1.548c-.664 0-1.328.551-1.328 1.323v7.39c0 .662.554 1.323 1.328 1.323h16.812c.664 0 1.327-.551 1.327-1.323v-7.39c0-.772-.553-1.323-1.327-1.323zm-13.936-4.632l-7.08-9.706c-.11-.11-.11-.33-.11-.44V38.073c0-.773.664-1.434 1.438-1.434.774 0 1.438.661 1.438 1.434v11.36c0 .22.11.662.332.772l5.198 5.956c.443.44 1.106.551 1.549.11.442-.441.553-1.103.11-1.544l-1.106-1.324c-.663-.772-.553-1.985.11-2.647l.111-.11c.332-.22.664-.441.996-.33.332 0 .774.22.995.55l6.194 7.832c.221.33.443.882.443 1.323v6.949h-9.734v-1.765c0-.993-.331-1.985-.884-2.868zm13.051 12.353H11.521v-5.515h14.932v5.515z"/>
        <path fill="#8A96D6" fill-rule="nonzero" d="M12.023 13.47l-.885 5.074c-.11.441.111.882.443 1.103.332.22.774.33 1.217.11l4.534-2.426 4.535 2.426c.332.22.774.22 1.217-.11.332-.22.553-.662.442-1.103l-.885-5.073 3.65-3.64c.332-.331.443-.772.332-1.103-.11-.441-.442-.662-.885-.772l-5.087-.772-2.323-4.633c-.221-.33-.553-.551-.996-.551-.442 0-.774.22-.995.662l-2.323 4.522-5.088.772c-.442.11-.774.33-.885.772-.11.441 0 .882.332 1.103l3.65 3.64zm47 0l-.885 5.074c-.11.441.111.882.443 1.103.332.22.774.33 1.217.11l4.534-2.426 4.535 2.426c.332.22.774.22 1.217-.11.332-.22.553-.662.442-1.103l-.885-5.073 3.65-3.64c.332-.331.443-.772.332-1.103-.11-.441-.442-.662-.885-.772l-5.087-.772-2.323-4.633c-.221-.33-.553-.551-.996-.551-.442 0-.774.22-.995.662l-2.323 4.522-5.088.772c-.442.11-.774.33-.885.772-.11.441 0 .882.332 1.103l3.65 3.64z"/>
        <path fill="#010101" fill-rule="nonzero" d="M9.973 15.574l-.885 5.073c-.11.441.11.882.442 1.103.332.22.775.33 1.217.11l4.535-2.426 4.535 2.426c.331.22.774.22 1.216-.11.332-.22.553-.662.443-1.103l-.885-5.073 3.65-3.64c.332-.331.442-.772.332-1.103-.11-.441-.443-.662-.885-.772L18.6 9.287l-2.323-4.633c-.22-.33-.553-.551-.995-.551-.443 0-.774.22-.996.662l-2.322 4.522-5.088.772c-.443.11-.774.33-.885.772-.11.441 0 .882.332 1.103l3.65 3.64zm2.875-4.192c.332 0 .664-.33.885-.551l1.549-3.088 1.548 3.088c.11.33.443.551.885.551l3.429.552L18.6 14.36c-.221.22-.332.662-.332.993l.553 3.42-3.097-1.655c-.332-.22-.663-.22-.995 0l-3.097 1.654.553-3.42c.11-.33-.11-.771-.332-.992L9.42 11.934l3.428-.552zM60.41 15.574l-.886 5.073c-.11.441.11.882.443 1.103.331.22.774.33 1.216.11l4.535-2.426 4.535 2.426c.332.22.774.11 1.217-.11.332-.22.553-.662.442-1.103l-.885-5.073 3.65-3.64c.332-.331.443-.772.332-1.103-.11-.441-.442-.662-.885-.772l-5.088-.772-2.322-4.633c-.332-.772-1.66-.772-1.991 0L62.4 9.287l-5.088.772c-.442.11-.774.33-.885.772-.11.441 0 .882.332 1.103l3.65 3.64zm2.985-4.192c.332 0 .664-.33.885-.551l1.549-3.088 1.548 3.088c.11.33.443.551.885.551l3.429.552-2.544 2.426c-.221.22-.332.662-.332.993l.553 3.42-3.097-1.655c-.11-.11-.332-.11-.553-.11-.221 0-.332 0-.553.11l-3.097 1.654.553-3.42c.11-.33-.11-.771-.332-.992l-2.544-2.426 3.65-.552z"/>
    </g>
</svg>
