<?xml version="1.0" encoding="UTF-8"?>
<svg width="229px" height="49px" viewBox="0 0 229 49" version="1.1" xmlns="http://www.w3.org/2000/svg" xmlns:xlink="http://www.w3.org/1999/xlink">
    <!-- Generator: sketchtool 52.1 (67048) - http://www.bohemiancoding.com/sketch -->
    <title>8FA121B3-1E32-4954-B134-1371D8A31D89</title>
    <desc>Created with sketchtool.</desc>
    <defs>
        <polyline id="path-1" points="0.295716535 16.4764973 0.295716535 6.15296791 8.28006299 0.132112299 8.28006299 10.4556417 0.295716535 16.4764973"></polyline>
        <linearGradient x1="-261.736224%" y1="-20.350265%" x2="247.148148%" y2="94.4907244%" id="linearGradient-3">
            <stop stop-color="#97B7D6" offset="0%"></stop>
            <stop stop-color="#7F8CB8" offset="100%"></stop>
        </linearGradient>
        <polyline id="path-4" points="0.302929134 16.6064439 0.302929134 6.28291444 8.28727559 0.262058824 8.28727559 10.5855882 0.302929134 16.6064439"></polyline>
        <linearGradient x1="-57.061879%" y1="25.8390018%" x2="451.822493%" y2="140.679991%" id="linearGradient-6">
            <stop stop-color="#97B7D6" offset="0%"></stop>
            <stop stop-color="#7F8CB8" offset="100%"></stop>
        </linearGradient>
        <polyline id="path-7" points="8.58299213 3.97636364 8.58299213 41.1410695 0.346204724 37.2968182 0.346204724 0.132112299 0.349811024 0.132112299 8.58299213 3.97636364"></polyline>
        <linearGradient x1="-390.268827%" y1="9.14673004%" x2="103.019264%" y2="54.9173488%" id="linearGradient-9">
            <stop stop-color="#77A6CD" offset="0%"></stop>
            <stop stop-color="#3B4EAE" offset="98.2320267%"></stop>
        </linearGradient>
        <polyline id="path-10" points="8.59020472 4.10631016 8.59020472 41.512861 0.353417323 37.665 0.353417323 0.262058824 8.59020472 4.10631016"></polyline>
        <linearGradient x1="-95.1401827%" y1="40.50818%" x2="94.2980629%" y2="54.1081365%" id="linearGradient-12">
            <stop stop-color="#77A6CD" offset="0%"></stop>
            <stop stop-color="#3B4EAE" offset="100%"></stop>
        </linearGradient>
        <polyline id="path-13" points="8.2367874 0.146550802 8.2367874 27.8035027 0 23.9556417 0 6.35871658 8.2367874 0.146550802"></polyline>
        <linearGradient x1="0%" y1="42.6385612%" x2="94.2980629%" y2="54.1081365%" id="linearGradient-15">
            <stop stop-color="#77A6CD" offset="0%"></stop>
            <stop stop-color="#3B4EAE" offset="100%"></stop>
        </linearGradient>
    </defs>
    <g id="Page-1" stroke="none" stroke-width="1" fill="none" fill-rule="evenodd">
        <g id="1.-Homepage" transform="translate(-120.000000, -25.000000)">
            <g id="header">
                <g id="logo" transform="translate(120.000000, 25.000000)">
                    <polyline id="Fill-29" fill="#272726" points="77.8199701 20.6304545 70.6661543 30.1775535 69.8504094 30.1775535 62.8531071 20.5990508 62.8531071 36.5842781 58.7112724 36.5842781 58.7112724 14.6002139 63.4809638 14.6002139 70.3524063 24.0534626 77.2238488 14.6002139 81.9618047 14.6002139 81.9618047 36.5842781 77.8199701 36.5842781 77.8199701 20.6304545"></polyline>
                    <polygon id="Fill-30" fill="#272726" points="86.8230961 36.5532353 90.9335559 36.5532353 90.9335559 14.5691711 86.8230961 14.5691711"></polygon>
                    <path d="M100.298754,18.4318316 L100.298754,25.466631 L106.605811,25.466631 C109.241294,25.466631 110.370787,23.7080214 110.370787,21.9494118 C110.370787,20.1904412 109.209559,18.4318316 106.605811,18.4318316 L100.298754,18.4318316 Z M115.61038,36.5528743 L110.684535,36.5528743 L104.283715,29.2040374 L100.298754,29.2040374 L100.298754,36.5528743 L96.1569197,36.5528743 L96.1569197,14.5377674 C99.6398835,14.5377674 103.122487,14.5691711 106.605811,14.5691711 C111.782654,14.6002139 114.512261,18.0549866 114.512261,21.8552005 C114.512261,24.8699599 113.13177,27.916484 108.958921,28.764385 L115.61038,36.2702406 L115.61038,36.5528743 Z" id="Fill-31" fill="#272726"></path>
                    <path d="M130.260249,19.1855214 L126.181524,28.5445588 L134.339334,28.5445588 L130.260249,19.1855214 Z M136.002198,32.4075802 L124.51866,32.4075802 L122.635811,36.5528743 L118.148854,36.5528743 L128.001263,14.5691711 L132.519595,14.5691711 L142.371644,36.5528743 L137.853672,36.5528743 L136.002198,32.4075802 Z" id="Fill-32" fill="#272726"></path>
                    <path d="M158.403447,19.8764037 C157.650813,18.620254 155.579715,17.4269118 153.19523,17.4269118 C150.120139,17.4269118 148.645523,18.7144652 148.645523,20.3474599 C148.645523,22.2634492 150.904869,22.7973128 153.540353,23.1113503 C158.121074,23.6766176 162.388408,24.8699599 162.388408,30.114746 C162.388408,35.0140909 158.058324,37.1181417 153.163494,37.1181417 C148.676898,37.1181417 145.225309,35.736377 143.593819,31.7163369 L147.045047,29.9263235 C148.018027,32.3447727 150.559386,33.4125 153.226605,33.4125 C155.830713,33.4125 158.278309,32.5017914 158.278309,30.114746 C158.278309,28.0420989 156.113087,27.1941979 153.19523,26.8797995 C148.708272,26.3459358 144.566438,25.1525936 144.566438,20.2222059 C144.566438,15.6993449 149.02202,13.8465241 153.06937,13.8151203 C156.489584,13.8151203 160.035298,14.7886364 161.698162,18.1806016 L158.403447,19.8764037" id="Fill-33" fill="#272726"></path>
                    <path d="M169.274636,25.7810294 C169.368761,29.3924599 171.313998,33.2554813 176.491202,33.2554813 C181.668405,33.2554813 183.614003,29.3610561 183.676753,25.7492647 C183.739142,22.043623 181.668405,17.8979679 176.491202,17.8979679 C171.313998,17.8979679 169.180512,22.0750267 169.274636,25.7810294 Z M187.755477,25.6864572 C187.692728,31.3708957 184.210124,37.0553342 176.491202,37.0553342 C168.772279,37.0553342 165.195551,31.4968717 165.195551,25.717861 C165.195551,19.9395722 168.898139,14.1291578 176.491202,14.1291578 C184.05289,14.1291578 187.818227,19.9395722 187.755477,25.6864572 Z" id="Fill-34" fill="#272726"></path>
                    <polyline id="Fill-35" fill="#272726" points="192.098904 36.5528743 192.098904 14.6002139 207.881512 14.6002139 207.881512 18.5888503 196.240378 18.5888503 196.240378 24.5873262 207.253655 24.5873262 207.253655 28.4189439 196.240378 28.4189439 196.240378 36.5528743 192.098904 36.5528743"></polyline>
                    <path d="M217.60698,18.3376203 L210.641413,18.3376203 L210.641413,14.5691711 C216.979483,14.5691711 222.344935,14.5691711 228.714381,14.5691711 L228.714381,18.3376203 L221.748814,18.3376203 L221.748814,36.5528743 L217.60698,36.5528743 L217.60698,18.3376203" id="Fill-36" fill="#272726"></path>
                    <g id="Group-39" transform="translate(24.162205, 7.941176)">
                        <mask id="mask-2" fill="white">
                            <use xlink:href="#path-1"></use>
                        </mask>
                        <g id="Clip-38"></g>
                        <polyline id="Fill-37" fill="url(#linearGradient-3)" mask="url(#mask-2)" points="0.295716535 16.4764973 0.295716535 6.15296791 8.28006299 0.132112299 8.28006299 10.4556417 0.295716535 16.4764973"></polyline>
                    </g>
                    <g id="Group-42" transform="translate(7.933858, 0.000000)">
                        <mask id="mask-5" fill="white">
                            <use xlink:href="#path-4"></use>
                        </mask>
                        <g id="Clip-41"></g>
                        <polyline id="Fill-40" fill="url(#linearGradient-6)" mask="url(#mask-5)" points="0.302929134 16.6064439 0.302929134 6.28291444 8.28727559 0.262058824 8.28727559 10.5855882 0.302929134 16.6064439"></polyline>
                    </g>
                    <g id="Group-45" transform="translate(32.096063, 7.941176)">
                        <mask id="mask-8" fill="white">
                            <use xlink:href="#path-7"></use>
                        </mask>
                        <g id="Clip-44"></g>
                        <polyline id="Fill-43" fill="url(#linearGradient-9)" mask="url(#mask-8)" points="8.58299213 3.97636364 8.58299213 41.1410695 0.346204724 37.2968182 0.346204724 0.132112299 0.349811024 0.132112299 8.58299213 3.97636364"></polyline>
                    </g>
                    <g id="Group-48" transform="translate(15.867717, 0.000000)">
                        <mask id="mask-11" fill="white">
                            <use xlink:href="#path-10"></use>
                        </mask>
                        <g id="Clip-47"></g>
                        <polyline id="Fill-46" fill="url(#linearGradient-12)" mask="url(#mask-11)" points="8.59020472 4.10631016 8.59020472 41.512861 0.353417323 37.665 0.353417323 0.262058824 8.59020472 4.10631016"></polyline>
                    </g>
                    <g id="Group-51" transform="translate(0.000000, 6.136364)">
                        <mask id="mask-14" fill="white">
                            <use xlink:href="#path-13"></use>
                        </mask>
                        <g id="Clip-50"></g>
                        <polyline id="Fill-49" fill="url(#linearGradient-15)" mask="url(#mask-14)" points="8.2367874 0.146550802 8.2367874 27.8035027 0 23.9556417 0 6.35871658 8.2367874 0.146550802"></polyline>
                    </g>
                </g>
            </g>
        </g>
    </g>
</svg>